<svg xmlns="http://www.w3.org/2000/svg" viewBox="0 0 512 512" width="512" height="512">
  <defs>
    <linearGradient id="bg" x1="0" y1="0" x2="1" y2="1">
      <stop offset="0" stop-color="#16203b"/>
      <stop offset="1" stop-color="#0a0f1d"/>
    </linearGradient>
  </defs>
  <rect width="512" height="512" rx="112" fill="url(#bg)"/>
  <g transform="translate(146 116)">
    <path d="M16 0 h188 a16 16 0 0 1 16 16 v264 l-30-20-30 20-30-20-30 20-30-20-30 20-30-20-30 20 V16 A16 16 0 0 1 16 0 Z"
          fill="#f5f2e9"/>
    <rect x="44" y="56" width="132" height="16" rx="8" fill="#16203b"/>
    <rect x="44" y="96" width="132" height="12" rx="6" fill="#c79a43"/>
    <rect x="44" y="128" width="96" height="12" rx="6" fill="#a79ef0"/>
  </g>
</svg>
